<svg id="Layer_2" data-name="Layer 2" xmlns="http://www.w3.org/2000/svg" viewBox="0 0 283.03 280.15"><defs><style>.cls-1{fill:none;stroke:#000;stroke-miterlimit:10;stroke-width:6px;}.cls-2{fill:#0061af;}</style></defs><title>logo3</title><polygon class="cls-1" points="48.87 103.41 104.46 47.82 179.79 47.82 234.89 102.92 234.89 176.44 181.68 229.65 105.45 229.65 51.54 175.74 48.87 103.41"/><path class="cls-1" d="M243.79,203.39H276V231l14.47,6.58s14.63,32.26,13.82,42.18c-1,11.64-5.64,40.72-27,45.32s-37.74-1.25-48.68-7.9c-22.75-13.82-7.24-63.16-7.24-63.16s10.53-17.1,23-18.42Z" transform="translate(-139 -133.53)"/><polygon class="cls-1" points="174.53 91.57 199.2 116.24 199.2 176.44 174.69 200.95 146.9 173.15 146.9 113.94 174.53 91.57"/><polygon class="cls-2" points="104.79 36.97 141.75 0 178.6 36.84 104.79 36.97"/><polygon class="cls-2" points="191.21 44.43 243.42 41.77 246.06 93.81 191.21 44.43"/><polygon class="cls-2" points="246.06 101.83 283.03 138.79 246.19 175.64 246.06 101.83"/><polygon class="cls-2" points="243.31 186.98 243.31 239.25 191.21 239.25 243.31 186.98"/><polygon class="cls-2" points="178.6 243.18 141.63 280.15 104.79 243.31 178.6 243.18"/><polygon class="cls-2" points="40.86 96 40.86 43.72 92.96 43.72 40.86 96"/><polygon class="cls-2" points="36.97 180.15 0 143.18 36.84 106.34 36.97 180.15"/><polygon class="cls-2" points="93.05 239.17 40.77 239.17 40.77 187.06 93.05 239.17"/></svg>